# xmcd
#
# Track frame offsets: 
#        150
#        10452
#        26700
#        39245
#        53060
#        69197
#        82032
#        100047
#        113457
#        134062
#        150072
#        166107
#        180000
#        191472
#
# Disc length: 2761 seconds
#
# Revision: 1
# Processed by: cddbd v1.4PL0 Copyright (c) Steve Scherf et al.
# Submitted via: ExactAudioCopy v0.90b4
#
DISCID=980ac70e
DTITLE=Garth Brooks - Sevens
DYEAR=1997
DGENRE=Country
TTITLE0=Longneck Bottle
TTITLE1=How You Ever Gonna Know
TTITLE2=She's Gonna Make It
TTITLE3=I Don't Have To Wonder
TTITLE4=Two Pina Coladas
TTITLE5=Cowboy Cadillac
TTITLE6=Fit For A King
TTITLE7=Do What You Gotta Do
TTITLE8=You Move Me
TTITLE9=In Another's Eyes
TTITLE10=When There's No One Around
TTITLE11=A Friend To Me
TTITLE12=Take The Keys To My Heart
TTITLE13=Belleau Wood
EXTD=
EXTT0=with Steve Wariner
EXTT1=
EXTT2=
EXTT3=
EXTT4=
EXTT5=
EXTT6=
EXTT7=
EXTT8=
EXTT9=with Trisha Yearwood
EXTT10=
EXTT11=
EXTT12=
EXTT13=
PLAYORDER=
